<svg width="606" height="110" viewBox="0 0 606 110" fill="none" xmlns="http://www.w3.org/2000/svg">
<path d="M458.85 55.4837C458.85 96.4798 443.942 109.835 407.76 109.835H384.777C384.311 109.835 384.311 109.213 384.777 109.213C386.641 109.213 387.883 104.555 387.883 100.207V10.7608C387.883 6.4127 386.641 1.75406 384.777 1.75406C384.311 1.75406 384.311 1.13291 384.777 1.13291H409.934C444.408 1.13291 458.85 15.4194 458.85 55.4837ZM408.07 9.67375V101.449C432.149 98.694 438.196 89.8024 438.196 55.4837C438.196 21.3203 430.432 7.655 408.07 9.67375Z" fill="white"/>
<path d="M324.636 109.835H309.107C308.641 109.835 308.641 109.213 309.107 109.213C310.97 109.213 312.213 104.555 312.213 100.207V10.7608C312.213 6.41271 310.97 1.75406 309.107 1.75406C308.641 1.75406 308.641 1.13291 309.107 1.13291H329.605L365.321 83.7461V10.7608C365.321 6.41271 364.079 1.75406 362.215 1.75406C361.749 1.75406 361.749 1.13291 362.215 1.13291H377.744C378.21 1.13291 378.21 1.75406 377.744 1.75406C375.881 1.75406 374.638 6.41271 374.638 10.7608V100.207C374.638 104.555 375.881 109.213 377.744 109.213C378.21 109.213 378.21 109.835 377.744 109.835H355.383L321.53 29.3953V100.207C321.53 104.555 322.772 109.213 324.636 109.213C325.101 109.213 325.101 109.835 324.636 109.835Z" fill="white"/>
<path d="M245.178 109.874H229.339C228.873 109.874 228.873 109.253 229.339 109.253C231.202 109.253 233.687 104.594 234.774 100.246L244.091 59.5604V59.4051L255.272 10.8C256.359 6.45193 256.359 1.79329 254.495 1.79329C254.03 1.79329 254.03 1.17213 254.495 1.17213H276.08L299.684 100.246C300.771 104.594 303.256 109.253 305.119 109.253C305.585 109.253 305.585 109.874 305.119 109.874H279.342C278.876 109.874 278.876 109.253 279.342 109.253C281.205 109.253 281.205 104.594 280.118 100.246L277.086 85.0378C274.625 73.4607 258.68 65.1251 251.596 69.7836L244.402 100.246C243.315 104.594 243.315 109.253 245.178 109.253C245.644 109.253 245.644 109.874 245.178 109.874ZM272.899 64.2032L262.26 17.7879L254.692 55.8404C261.033 57.3974 266.859 56.8482 272.899 64.2032Z" fill="white"/>
<path d="M516.888 109.874H532.728C533.193 109.874 533.193 109.253 532.728 109.253C530.864 109.253 528.379 104.594 527.292 100.246L517.975 59.5604V59.4051L506.794 10.8C505.707 6.45191 505.707 1.79327 507.571 1.79327C508.037 1.79327 508.037 1.17211 507.571 1.17211H485.986L462.382 100.246C461.295 104.594 458.81 109.253 456.947 109.253C456.481 109.253 456.481 109.874 456.947 109.874H482.725C483.191 109.874 483.191 109.253 482.725 109.253C480.861 109.253 480.861 104.594 481.948 100.246L484.98 85.0377C487.441 73.4607 503.387 65.125 510.471 69.7835L517.665 100.246C518.752 104.594 518.752 109.253 516.888 109.253C516.422 109.253 516.422 109.874 516.888 109.874ZM489.167 64.2032L499.806 17.7879L507.375 55.8403C501.033 57.3974 495.208 56.8482 489.167 64.2032Z" fill="white"/>
<path d="M178.852 109.835H152.453C151.987 109.835 151.987 109.214 152.453 109.214C154.316 109.214 155.559 104.555 155.559 100.207V10.7612C155.559 6.41311 154.316 1.75447 152.453 1.75447C151.987 1.75447 151.987 1.13331 152.453 1.13331H177.61C179.628 0.978026 182.113 0.978027 185.685 0.978027C207.891 0.978027 221.09 11.8482 221.09 30.3275C221.09 43.3717 213.481 52.5336 199.816 56.4158L220.314 102.381C222.643 107.35 224.041 109.214 225.438 109.214C225.904 109.214 225.904 109.835 225.438 109.835H202.456L180.715 58.4346L175.746 58.5899V100.207C175.746 104.555 176.988 109.214 178.852 109.214C179.318 109.214 179.318 109.835 178.852 109.835ZM175.746 50.049L181.026 49.8938C193.449 49.4279 200.437 42.5952 200.437 30.3275C200.437 16.8174 193.449 9.053 181.026 9.51887L175.746 9.67416V50.049Z" fill="white"/>
<path d="M148.75 109.835H80.2677C79.8019 109.835 79.8019 109.213 80.2677 109.213C82.1312 109.213 83.3735 104.555 83.3735 100.207V10.7608C83.3735 6.4127 82.1312 1.75406 80.2677 1.75406C79.8019 1.75406 79.8019 1.13291 80.2677 1.13291H142.538L135.55 18.0593C135.395 18.3699 135.24 18.3699 135.084 18.0593C132.134 14.1771 124.68 9.67375 114.12 9.67375C109.307 9.67375 105.89 10.4502 103.561 11.8478V45.8559C107.754 37.4703 117.968 33.0754 121.214 31.4523C123.997 30.0611 125.852 29.3655 127.243 28.9018C128.634 28.4381 131.414 27.5085 131.88 27.9743L130.489 46.7556C130.334 47.0662 130.178 47.0662 130.023 46.7556C128.781 45.2027 122.374 44.6688 118.934 46.0239C114.12 48.3787 106.511 53.1544 103.561 64.4904V99.1196C106.201 100.517 110.549 101.294 116.605 101.294C126.699 101.294 135.55 98.1879 141.141 92.4423C141.296 92.287 141.451 92.287 141.606 92.5976L148.75 109.835Z" fill="white"/>
<path d="M605.651 109.993H579.252C578.786 109.993 578.786 109.372 579.252 109.372C581.115 109.372 582.357 104.714 582.357 100.366V42.257C575.956 38.8453 560.772 45.1297 560.772 50.8175V100.366C560.772 104.714 562.015 109.372 563.878 109.372C564.344 109.372 564.344 109.993 563.878 109.993H537.479C537.013 109.993 537.013 109.372 537.479 109.372C539.343 109.372 540.585 104.714 540.585 100.366V10.9197C540.585 6.57166 539.343 1.91301 537.479 1.91301C537.013 1.91301 537.013 1.29186 537.479 1.29186H563.878C564.344 1.29186 564.344 1.91301 563.878 1.91301C562.015 1.91301 560.772 6.57166 560.772 10.9197V35.0869C566.404 32.1849 571.68 28.8114 582.357 28.8114V10.9197C582.357 6.57166 581.115 1.91301 579.252 1.91301C578.786 1.91301 578.786 1.29186 579.252 1.29186H605.651C606.116 1.29186 606.116 1.91301 605.651 1.91301C603.787 1.91301 602.545 6.57166 602.545 10.9197V100.366C602.545 104.714 603.787 109.372 605.651 109.372C606.116 109.372 606.116 109.993 605.651 109.993Z" fill="white"/>
<path d="M58.7377 1.2878H74.5771C75.0429 1.2878 75.0429 1.90895 74.5771 1.90895C72.7136 1.90895 70.229 6.5676 69.142 10.9157L48.0228 109.989H29.3883L5.78448 10.9157C4.69746 6.5676 2.21285 1.90895 0.349398 1.90895C-0.116466 1.90895 -0.116466 1.2878 0.349398 1.2878H26.1272C26.5931 1.2878 26.5931 1.90895 26.1272 1.90895C24.2637 1.90895 24.2637 6.5676 25.3508 10.9157L43.2089 93.3736L59.5141 10.9157C60.6011 6.5676 60.6011 1.90895 58.7377 1.90895C58.2718 1.90895 58.2718 1.2878 58.7377 1.2878Z" fill="white"/>
</svg>
